<?xml version="1.0" encoding="UTF-8"?>
<svg xmlns="http://www.w3.org/2000/svg" id="a" width="865.76" height="682.89" viewBox="0 0 865.76 682.89">
  <g>
    <rect x="214.11" y="129.99" width="46.15" height="166.75" fill="#98cfe4"></rect>
    <rect x="437.31" y="190.64" width="74.34" height="106.1" fill="#98cfe4"></rect>
    <rect x="461.98" y="147.14" width="32.93" height="64.41" fill="#98cfe4"></rect>
    <rect x="360.19" y="144.28" width="37.77" height="10.33" fill="#98cfe4"></rect>
    <rect x="213.13" y="115.76" width="48.1" height="6.56" fill="#98cfe4"></rect>
    <polygon points="587.58 296.69 587.58 203.84 553.86 216.98 553.86 296.69 587.58 296.69" fill="#98cfe4"></polygon>
    <rect x="397.59" y="102.45" width="44.44" height="194.3" fill="#98cfe4"></rect>
    <rect x="405.04" y="82.63" width="29.9" height="76.3" fill="#98cfe4"></rect>
    <rect x="418.22" y="51.61" width="3.54" height="67.54" fill="#98cfe4"></rect>
    <rect x="252.66" y="120.53" width="4.01" height="36.9" fill="#98cfe4"></rect>
    <rect x="243.92" y="120.53" width="4.01" height="36.9" fill="#98cfe4"></rect>
    <rect x="235.18" y="120.53" width="4.01" height="36.9" fill="#98cfe4"></rect>
    <rect x="226.42" y="120.53" width="4.01" height="36.9" fill="#98cfe4"></rect>
    <rect x="217.68" y="120.53" width="4.01" height="36.9" fill="#98cfe4"></rect>
    <rect x="363.98" y="150.9" width="67.24" height="145.85" fill="#98cfe4"></rect>
    <rect x="254.51" y="217.41" width="39.22" height="79.33" fill="#98cfe4"></rect>
    <polygon points="798.93 296.69 798.93 227.8 752.51 229.45 752.51 296.69 798.93 296.69" fill="#98cfe4"></polygon>
    <polygon points="788.03 236.82 761.16 236.82 761.16 210.75 774.59 198.14 788.03 210.75 788.03 236.82" fill="#98cfe4"></polygon>
    <polygon points="117.06 296.69 117.06 219.22 57.72 221.08 57.72 296.69 117.06 296.69" fill="#98cfe4"></polygon>
    <polygon points="117.06 268.91 117.06 197.18 65.26 198.9 65.26 268.91 117.06 268.91" fill="#98cfe4"></polygon>
    <rect x="583.57" y="186.58" width="77.58" height="110.36" fill="#98cfe4"></rect>
    <rect x="587.58" y="175.56" width="53.46" height="20.39" fill="#98cfe4"></rect>
    <polygon points="630.88 201.16 593.73 201.16 593.73 166.65 612.3 149.95 630.88 166.65 630.88 201.16" fill="#98cfe4"></polygon>
    <polygon points="345.41 296.74 345.41 150.89 307.03 158.67 307.03 296.74 345.41 296.74" fill="#98cfe4"></polygon>
    <polygon points="219.38 296.74 219.38 132.21 180.99 140.98 180.99 296.74 219.38 296.74" fill="#98cfe4"></polygon>
    <polygon points="326.22 296.74 326.22 190.33 287.83 184.13 287.83 296.74 326.22 296.74" fill="#98cfe4"></polygon>
    <rect x="672.08" y="103.84" width="3.1" height="18.86" fill="#98cfe4"></rect>
    <rect x="664.96" y="108.16" width="3.1" height="18.86" fill="#98cfe4"></rect>
    <rect x="684.88" y="108.16" width="3.1" height="18.86" fill="#98cfe4"></rect>
    <polygon points="705.27 296.69 705.27 121.91 649.03 122.75 649.03 296.69 705.27 296.69" fill="#98cfe4"></polygon>
    <polygon points="555.18 296.74 555.18 168.92 499.52 129.57 499.52 296.74 555.18 296.74" fill="#98cfe4"></polygon>
    <rect x="700.69" y="170.06" width="52.28" height="126.63" fill="#98cfe4"></rect>
    <rect x="700.69" y="162.2" width="42.48" height="47.33" fill="#98cfe4"></rect>
    <rect x="710.97" y="150.34" width="23.95" height="20.63" fill="#98cfe4"></rect>
    <rect x="114.66" y="178.35" width="68.43" height="118.34" fill="#98cfe4"></rect>
    <rect x="127.48" y="171.02" width="55.61" height="44.23" fill="#98cfe4"></rect>
    <rect x="138.28" y="159.92" width="31.36" height="19.28" fill="#98cfe4"></rect>
    <rect x="224.5" y="139.67" width="27.11" height="5.02" fill="#fff"></rect>
    <rect x="224.5" y="152.16" width="27.11" height="5.01" fill="#fff"></rect>
    <rect x="224.5" y="164.64" width="27.11" height="5.01" fill="#fff"></rect>
    <rect x="224.5" y="177.13" width="27.11" height="5.02" fill="#fff"></rect>
    <rect x="224.5" y="189.62" width="27.11" height="5.02" fill="#fff"></rect>
    <rect x="224.5" y="202.1" width="27.11" height="5.01" fill="#fff"></rect>
    <rect x="224.5" y="214.58" width="27.11" height="5.02" fill="#fff"></rect>
    <rect x="224.5" y="227.07" width="27.11" height="5.01" fill="#fff"></rect>
    <rect x="224.5" y="239.56" width="27.11" height="5.02" fill="#fff"></rect>
    <rect x="224.5" y="252.05" width="27.11" height="5.02" fill="#fff"></rect>
    <rect x="224.5" y="264.54" width="27.11" height="5.01" fill="#fff"></rect>
    <rect x="406.01" y="111.55" width="27.65" height="2.91" fill="#fff"></rect>
    <rect x="406.01" y="118.81" width="27.65" height="2.91" fill="#fff"></rect>
    <rect x="406.01" y="126.06" width="27.65" height="2.91" fill="#fff"></rect>
    <rect x="406.01" y="133.33" width="27.65" height="2.92" fill="#fff"></rect>
    <rect x="406.01" y="140.59" width="27.65" height="2.91" fill="#fff"></rect>
    <rect x="406.01" y="147.84" width="27.65" height="2.91" fill="#fff"></rect>
    <rect x="406.01" y="155.11" width="27.65" height="2.91" fill="#fff"></rect>
    <rect x="406.01" y="162.36" width="27.65" height="2.91" fill="#fff"></rect>
    <rect x="406.01" y="169.62" width="27.65" height="2.91" fill="#fff"></rect>
    <rect x="406.01" y="176.89" width="27.65" height="2.91" fill="#fff"></rect>
    <rect x="406.01" y="184.14" width="27.65" height="2.92" fill="#fff"></rect>
    <rect x="406.01" y="190.82" width="27.65" height="2.92" fill="#fff"></rect>
    <rect x="406.01" y="198.07" width="27.65" height="2.91" fill="#fff"></rect>
    <rect x="406.01" y="205.34" width="27.65" height="2.92" fill="#fff"></rect>
    <rect x="406.01" y="212.6" width="27.65" height="2.91" fill="#fff"></rect>
    <rect x="406.01" y="219.85" width="27.65" height="2.91" fill="#fff"></rect>
    <rect x="406.01" y="227.12" width="27.65" height="2.91" fill="#fff"></rect>
    <rect x="406.01" y="234.37" width="27.65" height="2.92" fill="#fff"></rect>
    <rect x="406.01" y="241.63" width="27.65" height="2.92" fill="#fff"></rect>
    <rect x="406.01" y="248.89" width="27.65" height="2.92" fill="#fff"></rect>
    <rect x="406.01" y="256.15" width="27.65" height="2.91" fill="#fff"></rect>
    <rect x="406.01" y="263.41" width="27.65" height="2.91" fill="#fff"></rect>
    <rect x="370.72" y="161.51" width="6.99" height="3.08" fill="#fff"></rect>
    <rect x="370.72" y="172.96" width="6.99" height="3.08" fill="#fff"></rect>
    <rect x="370.72" y="184.41" width="6.99" height="3.08" fill="#fff"></rect>
    <rect x="370.72" y="195.86" width="6.99" height="3.08" fill="#fff"></rect>
    <rect x="370.72" y="207.3" width="6.99" height="3.08" fill="#fff"></rect>
    <rect x="370.72" y="218.75" width="6.99" height="3.08" fill="#fff"></rect>
    <rect x="370.72" y="230.2" width="6.99" height="3.08" fill="#fff"></rect>
    <rect x="370.72" y="241.65" width="6.99" height="3.08" fill="#fff"></rect>
    <rect x="370.72" y="253.1" width="6.99" height="3.08" fill="#fff"></rect>
    <rect x="370.72" y="264.55" width="6.99" height="3.08" fill="#fff"></rect>
    <rect x="370.72" y="276" width="6.99" height="3.08" fill="#fff"></rect>
    <rect x="380.97" y="161.51" width="6.99" height="3.08" fill="#fff"></rect>
    <rect x="380.97" y="172.96" width="6.99" height="3.08" fill="#fff"></rect>
    <rect x="380.97" y="184.41" width="6.99" height="3.08" fill="#fff"></rect>
    <rect x="380.97" y="195.86" width="6.99" height="3.08" fill="#fff"></rect>
    <rect x="380.97" y="207.3" width="6.99" height="3.08" fill="#fff"></rect>
    <rect x="380.97" y="218.75" width="6.99" height="3.08" fill="#fff"></rect>
    <rect x="380.97" y="230.2" width="6.99" height="3.08" fill="#fff"></rect>
    <rect x="380.97" y="241.65" width="6.99" height="3.08" fill="#fff"></rect>
    <rect x="380.97" y="253.1" width="6.99" height="3.08" fill="#fff"></rect>
    <rect x="380.97" y="264.55" width="6.99" height="3.08" fill="#fff"></rect>
    <rect x="380.97" y="276" width="6.99" height="3.08" fill="#fff"></rect>
    <rect x="391.2" y="161.51" width="6.99" height="3.08" fill="#fff"></rect>
    <rect x="391.2" y="172.96" width="6.99" height="3.08" fill="#fff"></rect>
    <rect x="391.2" y="184.41" width="6.99" height="3.08" fill="#fff"></rect>
    <rect x="391.2" y="195.86" width="6.99" height="3.08" fill="#fff"></rect>
    <rect x="391.2" y="207.3" width="6.99" height="3.08" fill="#fff"></rect>
    <rect x="391.2" y="218.75" width="6.99" height="3.08" fill="#fff"></rect>
    <rect x="391.2" y="230.2" width="6.99" height="3.08" fill="#fff"></rect>
    <rect x="391.2" y="241.65" width="6.99" height="3.08" fill="#fff"></rect>
    <rect x="391.2" y="253.1" width="6.99" height="3.08" fill="#fff"></rect>
    <rect x="391.2" y="264.55" width="6.99" height="3.08" fill="#fff"></rect>
    <rect x="391.2" y="276" width="6.99" height="3.08" fill="#fff"></rect>
    <rect x="595.5" y="183.73" width="7.36" height="2.45" fill="#fff"></rect>
    <rect x="595.5" y="192.88" width="7.36" height="2.45" fill="#fff"></rect>
    <rect x="595.5" y="202.01" width="7.36" height="2.45" fill="#fff"></rect>
    <rect x="595.5" y="211.16" width="7.36" height="2.45" fill="#fff"></rect>
    <rect x="595.5" y="220.29" width="7.36" height="2.45" fill="#fff"></rect>
    <rect x="595.5" y="229.42" width="7.36" height="2.45" fill="#fff"></rect>
    <rect x="595.5" y="238.57" width="7.36" height="2.45" fill="#fff"></rect>
    <rect x="595.5" y="247.7" width="7.36" height="2.45" fill="#fff"></rect>
    <rect x="595.5" y="256.84" width="7.36" height="2.45" fill="#fff"></rect>
    <rect x="595.5" y="265.98" width="7.36" height="2.45" fill="#fff"></rect>
    <rect x="595.5" y="275.12" width="7.36" height="2.45" fill="#fff"></rect>
    <rect x="611.3" y="183.73" width="7.36" height="2.45" fill="#fff"></rect>
    <rect x="611.3" y="192.88" width="7.36" height="2.45" fill="#fff"></rect>
    <rect x="611.3" y="202.01" width="7.36" height="2.45" fill="#fff"></rect>
    <rect x="611.3" y="211.16" width="7.36" height="2.45" fill="#fff"></rect>
    <rect x="611.3" y="220.29" width="7.36" height="2.45" fill="#fff"></rect>
    <rect x="611.3" y="229.42" width="7.36" height="2.45" fill="#fff"></rect>
    <rect x="611.3" y="238.57" width="7.36" height="2.45" fill="#fff"></rect>
    <rect x="611.3" y="247.7" width="7.36" height="2.45" fill="#fff"></rect>
    <rect x="611.3" y="256.84" width="7.36" height="2.45" fill="#fff"></rect>
    <rect x="611.3" y="265.98" width="7.36" height="2.45" fill="#fff"></rect>
    <rect x="611.3" y="275.12" width="7.36" height="2.45" fill="#fff"></rect>
    <rect x="627.1" y="183.73" width="7.36" height="2.45" fill="#fff"></rect>
    <rect x="627.1" y="192.88" width="7.36" height="2.45" fill="#fff"></rect>
    <rect x="627.1" y="202.01" width="7.36" height="2.45" fill="#fff"></rect>
    <rect x="627.1" y="211.16" width="7.36" height="2.45" fill="#fff"></rect>
    <rect x="627.1" y="220.29" width="7.36" height="2.45" fill="#fff"></rect>
    <rect x="627.1" y="229.42" width="7.36" height="2.45" fill="#fff"></rect>
    <rect x="627.1" y="238.57" width="7.36" height="2.45" fill="#fff"></rect>
    <rect x="627.1" y="247.7" width="7.36" height="2.45" fill="#fff"></rect>
    <rect x="627.1" y="256.84" width="7.36" height="2.45" fill="#fff"></rect>
    <rect x="627.1" y="265.98" width="7.36" height="2.45" fill="#fff"></rect>
    <rect x="627.1" y="275.12" width="7.36" height="2.45" fill="#fff"></rect>
    <rect x="505.7" y="183.73" width="7.36" height="2.45" fill="#fff"></rect>
    <rect x="505.7" y="192.88" width="7.36" height="2.45" fill="#fff"></rect>
    <rect x="505.7" y="202.01" width="7.36" height="2.45" fill="#fff"></rect>
    <rect x="505.7" y="211.16" width="7.36" height="2.45" fill="#fff"></rect>
    <rect x="505.7" y="220.29" width="7.36" height="2.45" fill="#fff"></rect>
    <rect x="505.7" y="229.42" width="7.36" height="2.45" fill="#fff"></rect>
    <rect x="505.7" y="238.57" width="7.36" height="2.45" fill="#fff"></rect>
    <rect x="505.7" y="247.7" width="7.36" height="2.45" fill="#fff"></rect>
    <rect x="505.7" y="256.84" width="7.36" height="2.45" fill="#fff"></rect>
    <rect x="505.7" y="265.98" width="7.36" height="2.45" fill="#fff"></rect>
    <rect x="505.7" y="275.12" width="7.36" height="2.45" fill="#fff"></rect>
    <rect x="521.49" y="183.73" width="7.36" height="2.45" fill="#fff"></rect>
    <rect x="521.49" y="192.88" width="7.36" height="2.45" fill="#fff"></rect>
    <rect x="521.49" y="202.01" width="7.36" height="2.45" fill="#fff"></rect>
    <rect x="521.49" y="211.16" width="7.36" height="2.45" fill="#fff"></rect>
    <rect x="521.49" y="220.29" width="7.36" height="2.45" fill="#fff"></rect>
    <rect x="521.49" y="229.42" width="7.36" height="2.45" fill="#fff"></rect>
    <rect x="521.49" y="238.57" width="7.36" height="2.45" fill="#fff"></rect>
    <rect x="521.49" y="247.7" width="7.36" height="2.45" fill="#fff"></rect>
    <rect x="521.49" y="256.84" width="7.36" height="2.45" fill="#fff"></rect>
    <rect x="521.49" y="265.98" width="7.36" height="2.45" fill="#fff"></rect>
    <rect x="521.49" y="275.12" width="7.36" height="2.45" fill="#fff"></rect>
    <rect x="537.3" y="183.73" width="7.36" height="2.45" fill="#fff"></rect>
    <rect x="537.3" y="192.88" width="7.36" height="2.45" fill="#fff"></rect>
    <rect x="537.3" y="202.01" width="7.36" height="2.45" fill="#fff"></rect>
    <rect x="537.3" y="211.16" width="7.36" height="2.45" fill="#fff"></rect>
    <rect x="537.3" y="220.29" width="7.36" height="2.45" fill="#fff"></rect>
    <rect x="537.3" y="229.42" width="7.36" height="2.45" fill="#fff"></rect>
    <rect x="537.3" y="238.57" width="7.36" height="2.45" fill="#fff"></rect>
    <rect x="537.3" y="247.7" width="7.36" height="2.45" fill="#fff"></rect>
    <rect x="537.3" y="256.84" width="7.36" height="2.45" fill="#fff"></rect>
    <rect x="537.3" y="265.98" width="7.36" height="2.45" fill="#fff"></rect>
    <rect x="537.3" y="275.12" width="7.36" height="2.45" fill="#fff"></rect>
    <rect x="659.14" y="134.53" width="39.5" height="3.08" fill="#fff"></rect>
    <rect x="659.14" y="145.73" width="39.5" height="3.08" fill="#fff"></rect>
    <rect x="659.14" y="156.94" width="39.5" height="3.08" fill="#fff"></rect>
    <rect x="659.14" y="168.13" width="39.5" height="3.08" fill="#fff"></rect>
    <rect x="659.14" y="179.33" width="39.5" height="3.08" fill="#fff"></rect>
    <rect x="659.14" y="190.52" width="39.5" height="3.08" fill="#fff"></rect>
    <rect x="659.14" y="201.72" width="39.5" height="3.08" fill="#fff"></rect>
    <rect x="659.14" y="212.91" width="39.5" height="3.08" fill="#fff"></rect>
    <rect x="659.14" y="224.11" width="39.5" height="3.08" fill="#fff"></rect>
    <rect x="659.14" y="235.31" width="39.5" height="3.08" fill="#fff"></rect>
    <rect x="659.14" y="246.51" width="39.5" height="3.08" fill="#fff"></rect>
    <rect x="43.78" y="22.41" width="771" height="274.32" fill="#fff" opacity=".3"></rect>
    <rect x="43.78" y="87.87" width="771" height="11.43" fill="#fff" stroke="#231f20" stroke-miterlimit="10"></rect>
    <rect x="158.08" y="22.41" width="9.35" height="274.32" fill="#fff" stroke="#231f20" stroke-miterlimit="10"></rect>
    <rect x="268.23" y="22.41" width="9.35" height="274.32" fill="#fff" stroke="#231f20" stroke-miterlimit="10"></rect>
    <rect x="378.37" y="22.41" width="9.35" height="274.32" fill="#fff" stroke="#231f20" stroke-miterlimit="10"></rect>
    <rect x="488.51" y="22.41" width="9.35" height="274.32" fill="#fff" stroke="#231f20" stroke-miterlimit="10"></rect>
    <rect x="598.66" y="22.41" width="9.35" height="274.32" fill="#fff" stroke="#231f20" stroke-miterlimit="10"></rect>
    <rect x="708.8" y="22.41" width="9.35" height="274.32" fill="#fff" stroke="#231f20" stroke-miterlimit="10"></rect>
    <rect x="108.21" y="72.29" width="111.18" height="6.23" rx="2.91" ry="2.91" fill="#e3e4e5" stroke="#231f20" stroke-miterlimit="10"></rect>
    <line x1="114.8" y1="71.11" x2="114.8" y2="22.31" fill="none" stroke="#231f20" stroke-linecap="round" stroke-linejoin="round"></line>
    <line x1="213.84" y1="71.4" x2="213.84" y2="22.31" fill="none" stroke="#231f20" stroke-linecap="round" stroke-linejoin="round"></line>
    <rect x="649.57" y="71.25" width="111.18" height="6.23" rx="2.91" ry="2.91" fill="#fff" stroke="#231f20" stroke-miterlimit="10"></rect>
    <path d="M34.95,14.1V305.04H823.62V14.1H34.95ZM814.79,296.73H43.78V22.41H814.79V296.73Z" fill="#fff" stroke="#231f20" stroke-miterlimit="10"></path>
    <rect x="111.33" y="71.25" width="105.99" height="5.2" rx="2.6" ry="2.6" fill="#40008f" stroke="#231f20" stroke-miterlimit="10"></rect>
    <line x1="656.17" y1="70.07" x2="656.17" y2="21.27" fill="none" stroke="#231f20" stroke-linecap="round" stroke-linejoin="round"></line>
    <line x1="755.21" y1="70.36" x2="755.21" y2="21.27" fill="none" stroke="#231f20" stroke-linecap="round" stroke-linejoin="round"></line>
    <rect x="652.69" y="70.21" width="105.99" height="5.2" rx="2.6" ry="2.6" fill="#40008f" stroke="#231f20" stroke-miterlimit="10"></rect>
  </g>
  <g>
    <path d="M619.34,296.32h66.33c.64-.02,1.29,.03,1.92,.15,4.88,.91,8.1,5.61,7.19,10.49l-13.09,92.58c-.91,5.96-5.93,10.43-11.96,10.64h-65.38c-5.79,0-9.84-4.78-9.08-10.64l12.09-92.58c.89-5.98,5.94-10.47,11.98-10.64Z" fill="#fff" stroke="#231f20" stroke-miterlimit="10"></path>
    <path d="M619.36,296.32h52.79c.64-.02,1.27,.03,1.9,.15,4.9,.9,8.13,5.6,7.23,10.5l-12.93,92.58c-.91,5.96-5.93,10.43-11.95,10.64h-52.06c-5.79,0-9.84-4.78-9.08-10.64l12.09-92.58c.89-5.99,5.95-10.48,12-10.64Z" fill="#40008f" stroke="#231f20" stroke-miterlimit="10"></path>
    <path d="M640.37,281.81h28.29c2.28-.04,4.46,.92,5.97,2.63,1.47,1.76,2.11,4.07,1.75,6.33-.81,5.05-5.09,8.81-10.19,8.96h-28.24c-.51,.01-1.01-.02-1.51-.11-4.17-.72-6.97-4.68-6.25-8.85,.78-5.06,5.07-8.83,10.18-8.96Z" fill="#fff" stroke="#231f20" stroke-miterlimit="10"></path>
    <path d="M640.35,281.81h20.02c2.28-.05,4.47,.91,5.98,2.63,1.48,1.75,2.12,4.07,1.76,6.33-.8,5.04-5.08,8.8-10.18,8.96h-19.97c-.51,.01-1.01-.02-1.51-.11-4.17-.72-6.97-4.68-6.25-8.85,.78-5.05,5.05-8.82,10.16-8.96Z" fill="#40008f" stroke="#231f20" stroke-miterlimit="10"></path>
    <rect x="347.29" y="368.55" width="483.87" height="172.65" fill="#fff" stroke="#231f20" stroke-miterlimit="10"></rect>
    <rect x="702.72" y="358.97" width="130.55" height="183.11" fill="#e3e4e5" stroke="#231f20" stroke-miterlimit="10"></rect>
    <rect x="316.02" y="345.02" width="528.98" height="23.53" fill="#fff" stroke="#231f20" stroke-miterlimit="10"></rect>
  </g>
  <g>
    <rect x="192.6" y="492.02" width="14.94" height="148.35" fill="#e3e4e5" stroke="#231f20" stroke-miterlimit="10"></rect>
    <rect x="196.61" y="504.3" width="14.94" height="162.23" fill="#e3e4e5" stroke="#231f20" stroke-miterlimit="10"></rect>
    <path d="M300.67,300.98l14.83-11.12s.02,0,.01,.01c-.78,.78-5.9,6.15-4.17,10.84l-10.67,.27Z" fill="#fff" stroke="#231f20" stroke-miterlimit="10"></path>
    <rect x="305.47" y="497.63" width="14.94" height="154.76" fill="#e3e4e5" stroke="#231f20" stroke-miterlimit="10"></rect>
    <path d="M276.92,417.58s51.23,12.27,65.64,18.14c0,0,16.81,5.07,15.48,26.42v22.95s.27,37.36-9.61,66.17l-13.34,68.57s-22.41-12.27-42.96-1.87l8-76.31-3.74-92.85-33.62-28.82s8.81-4.8,14.14-2.4Z" fill="#40008f" stroke="#231f20" stroke-miterlimit="10"></path>
    <path d="M305.47,328.73l2.67-.27s16.54-20.55,40.56-37.62l-30.07,17.15c-.36,.21-.66,.54-.76,.95-.16,.59,.03,1.39,1.83,1.87,.05,.01,.07,.08,.03,.11l-9.23,8.54s.48,1.86-2.54,5.84l-2.49,3.44Z" fill="#40008f" stroke="#231f20" stroke-miterlimit="10"></path>
    <polygon points="365.51 592.08 359.96 596.12 359.16 594.26 365.51 592.08" fill="none" stroke="#ed1c24" stroke-miterlimit="10"></polygon>
    <path d="M213.42,204.12s4,22.95,24.55,24.01c0,0,6.94,1.33,13.61-11.21,0,0,10.94-20.81,9.34-25.88,0,0-.53-5.34,.8-8.54,0,0,2.4-2.94,2.13-9.07,0,0,1.07-20.01-13.07-22.15,0,0-.82-.08-2.14,.01-7.24,.51-13.52,5.18-16.23,11.91-2.85,7.09-11.18,27.26-18.99,40.91Z" fill="#faa27f" stroke="#231f20" stroke-miterlimit="10"></path>
    <path d="M235.75,227.85l-3.65,13.09s8.27,7.47,16.54,7.2c0,0-.86,3.45-7.01,5.63-2.78,.99-5.73,1.36-8.67,1.16-7.6-.49-27.71-2.69-46.48-12.4,0,0-8.54-3.74-14.14-4.27,0,0,5.34-3.17,11.43-4.73,4.3-1.1,8.41-2.85,12.08-5.35,4.91-3.34,10.6-8.67,13.86-16.6,.68-1.66,1.43-3.29,2.29-4.86l1.44-2.62s3.47,21.35,22.33,23.73Z" fill="#faa27f" stroke="#231f20" stroke-miterlimit="10"></path>
    <path d="M280.92,377.55c-8.27,11.21-18.14,4.27-18.14,4.27,1.6,7.88,1.68,12.88,1.25,16.02-.54,3.92,.8,7.87,3.63,10.64l9.26,9.09c-5.07-2.13-14.14,2.4-14.14,2.4l-30.16-2.97c-2.73-.27-5.44-.78-8.1-1.49-7.68-2.03-16.98-1.41-16.98-1.41l-25.08,5.34-3.2-3.47c-11.21,0-9.87-15.74-9.87-15.74l-1.07-2.13c-30.68,14.41-30.68,32.82-30.68,32.82l-8.14-1.77-4.13-.9c2.14-38.01,17.61-52.9,20.97-56.23,1.12-1.11,2.13-2.33,2.96-3.68,.92-1.49,1.53-2.92,1.94-4.18,.76-2.33,.77-4.85,.13-7.21-10.18-37.57-8.39-67.98-8.39-67.98,2.5-27.34,11.46-40.41,17.83-46.37,1.34-1.25,2.56-2.19,3.58-2.88,1.9-1.28,4.18-1.86,6.46-1.65,3.21,.29,8.6,1.28,15.62,4.47,0,0,22.53,11.72,46.48,12.4,0,0,12.22,.94,15.69-6.8,0,0,5.06-.8,11.62,3.24,6.56,4.04,10.99,10.78,12.32,18.36l5.14,29.36,8.54,45.09c2.13,5.6,.27,10.14,.27,10.14,4.54,15.21-5.6,23.21-5.6,23.21Z" fill="#000000" stroke="#231f20" stroke-miterlimit="10"></path>
    <path d="M276.65,360.74s.67-2.1-1.13-5.32l-2.25,1.8,3.38,3.52Z" fill="#000000" stroke="#231f20" stroke-miterlimit="10"></path>
    <line x1="262.78" y1="381.82" x2="261.71" y2="368.75" fill="none" stroke="#231f20" stroke-linecap="round" stroke-linejoin="round"></line>
    <path d="M245.17,135.28s-16.81-15.48-39.49,8c0,0-10.67,10.14-16.54,37.09l-17.34,50.96-6.14,7.47s4-1.6,6.67-.53c0,0,4.71-3.05,11.43-4.73,0,0,18.74-4.6,25.94-21.95l3.73-7.48s11.02-19.65,18.99-40.91c0,0,4.5-12.19,18.37-11.92,0,0,12.81,.53,13.07,22.15,0,0,.27,5.87-2.13,9.07,0,0-1.33,2.94-.8,8.54,0,0,.53,2.36-1.2,7.45,0,0-4.4,12.03-8.14,18.43,0,0-6.84,13.58-15.83,10.92l-2.26,7.7s15.69,1.66,26.36-30.09c0,0,6.04-16.17,7.1-32.99,.54-8.52-1.13-17.07-5.07-24.65-3.44-6.6-8.84-13.07-16.71-12.54Z" fill="#231f20" stroke="#231f20" stroke-miterlimit="10"></path>
    <path d="M333.7,619.22s5.39,10.21,6.45,18.22c0,0,4,13.61,9.61,19.21,0,0,18.94,14.14,10.67,16.01,0,0-2.67,.8-5.07,.53,0,0-7.47,1.33-14.14-.27l-6.67-1.07s-5.94-.61-9.92-7.4c-.8-1.37-1.4-2.86-1.83-4.39-.9-3.2-4.28-12.28-13.89-14.13-1.92-.37-3.82-.87-5.63-1.6-5.82-2.36-15.32-7.92-10.36-17.84l5.6-11.09s15.11-5.61,35.17,3.81Z" fill="#fff" stroke="#231f20" stroke-miterlimit="10"></path>
    <path d="M292.13,617.96s-1.05,2.39,2.41,5.07l3.99-7.62s-3.73,1.21-6.4,2.55Z" fill="#40008f" stroke="#231f20" stroke-miterlimit="10"></path>
    <path d="M333.34,612.51l3.63,13.96s.79,6.96,4.79,11.5c0,0,16.01,33.09,24.28,33.35,0,0,5.6,1.6,9.61,.53,0,0,4,1.07,8.54,.27,0,0,5.87,1.07,9.34,.27,0,0,4.8,.27,7.2-1.07,0,0,3.46,.16,4.17-3.13,.38-1.79-.27-3.64-1.61-4.87l-14.72-13.59c-.92-.85-1.75-1.77-2.5-2.77-1.59-2.12-4.29-6.08-6.42-10.85l-15.48-35.49s-30.68,6.94-30.42,7.74-.41,4.16-.41,4.16Z" fill="#fff" stroke="#231f20" stroke-miterlimit="10"></path>
    <path d="M371.21,600.74l-5.39,3.92-.8-1.86,6.16-2.11s.06,.03,.03,.05Z" fill="#40008f" stroke="#231f20" stroke-miterlimit="10"></path>
    <path d="M280.62,489.01l-.18,.66-67.55,1.28H115.22c-4.06-4.41-3.57-9.64-2.77-12.68,.43-1.65,1.38-3.11,2.71-4.18,9.92-8.04,24.28-4.6,24.28-4.6h.1c.89,.98,1.85,1.91,2.89,2.79,0,0,6.4,5.07,25.62,1.6,0,0,35.22-5.87,55.23,1.6,0,0,20.28,7.74,33.89,6.14l18.14-1.33s4-1.6,4.54,3.2c0,0,.15,1.94,.76,5.53Z" fill="#e3e4e5" stroke="#231f20" stroke-miterlimit="10"></path>
    <polygon points="115.22 490.95 115.22 512.57 203.81 512.83 203.83 491.14 115.22 490.95" fill="#fff" stroke="#231f20" stroke-miterlimit="10"></polygon>
    <polygon points="203.81 512.83 292.93 509.63 291.86 490.42 280.44 489.67 203.83 491.14 203.81 512.83" fill="#fff" stroke="#231f20" stroke-miterlimit="10"></polygon>
    <path d="M115.22,512.57s-6.14,76.85-17.61,140.08l4.54-1.07s12.54-72.04,14.68-85.12l6.67-53.9h-8.27Z" fill="#e3e4e5" stroke="#231f20" stroke-miterlimit="10"></path>
    <path d="M97.61,652.65h-7.2l12.27-109.13s1.87-48.3-2.94-99.79l-13.34-119.54s-1.07-16.28,13.87-16.28c0,0-7.47,2.4-6.14,14.94l16.28,130.74,2.95,22.7s-4.56,6.92,1.85,14.66v21.61s-7.74,89.92-17.61,140.08Z" fill="#e3e4e5" stroke="#231f20" stroke-miterlimit="10"></path>
    <path d="M100.28,307.91s4.54-1.87,10.67,0c0,0,12.01,3.47,18.68,1.07,0,0,9-3.16,13.7-.78,0,0,.51,8.21,1.14,12.24,0,0-4.17-1.58-10.58,.29,0,0-11.47,1.6-18.94-.53,0,0-9.07-4-12.81,.53,0,0-2.94,2.13-1.6,11.74l14.68,104.6s9.76-2.13,13.82-1.47c0,0,.17,6.16,.91,11.28,0,0-8.06,.06-12.33,2.99l2.88,20.95s-5.77,2.57-7.13,5.49l-16.66-132.34-2.44-19.82s-2.27-12.75,6-16.22Z" fill="#fff" stroke="#231f20" stroke-miterlimit="10"></path>
    <polygon points="227.82 335.93 271.05 299.11 275.05 310.58 232.89 347.67 227.82 335.93" fill="#e3e4e5" stroke="#231f20" stroke-miterlimit="10"></polygon>
    <polygon points="271.05 299.11 311.34 300.71 316.14 310.85 275.05 310.58 271.05 299.11" fill="#e3e4e5" stroke="#231f20" stroke-miterlimit="10"></polygon>
    <polygon points="232.89 347.67 272.12 345.54 316.14 310.85 275.05 310.58 232.89 347.67" fill="#40008f" stroke="#231f20" stroke-miterlimit="10"></polygon>
    <path d="M316.14,310.85h3.66s.04,.03,.02,.05l-19.96,18.09-10.56,3.15,26.84-21.29Z" fill="#000000" stroke="#231f20" stroke-miterlimit="10"></path>
    <path d="M319.81,310.83c-.41-.12-2.46-.77-1.88-2.12,.13-.31,.38-.55,.67-.71l30.09-17.16-9.34-9.07-24.55,12.81s-4.8,2.67-3.47,6.14l4.8,10.14h3.66s.01-.02,0-.02Z" fill="#e3e4e5" stroke="#231f20" stroke-miterlimit="10"></path>
    <path d="M311.34,300.71s-1.35-2.47,2.34-5.34c.56-.43,1.16-.81,1.78-1.13l4.95-2.59s5.6-7.74,13.07-14.41l-17.08,12.01s-8.54,5.87-5.07,11.47Z" fill="#fff" stroke="#231f20" stroke-miterlimit="10"></path>
    <path d="M251.3,180.9s-2.13,1.33-1.6,4.27l1.87,9.87s1.6,8-6.4,5.87" fill="none" stroke="#231f20" stroke-linecap="round" stroke-linejoin="round"></path>
    <line x1="232.09" y1="240.94" x2="230.23" y2="247.88" fill="none" stroke="#231f20" stroke-linecap="round" stroke-linejoin="round"></line>
    <path d="M273.28,357.22l18.21-14.74c.78-.63,1.42-1.41,1.88-2.29l.96-1.82c.48-.91,1.17-1.69,2.01-2.28l6.72-4.71c2.13-1.33,2.4-2.67,2.4-2.67l4.54-6.14c2.4-3.2,4.27-6.67,4.27-6.67l-3.47,2.94c-2.2,3.09-7.14,5.08-8.79,5.68-.4,.15-.79,.32-1.17,.53l-8.19,4.47c-3.18,.23-10.21,4.31-12.24,5.53-.37,.22-.8,.3-1.22,.23l-.27-.04c-1.29-.21-1.93-1.68-1.21-2.77,0,0,0,0,0,0,3.47-5.34-.27-8-.27-8-4.57-2.98-5.88,1.73-6.26,4.33-.19,1.29-.71,2.5-1.51,3.53-1.8,2.32-4.22,4.59-5.4,5.65-.38,.34-.79,.64-1.21,.94-3.02,2.13-3.5,7.43-3.5,7.43,0,0,8.72,5.76,13.7,10.89Z" fill="#faa27f" stroke="#231f20" stroke-miterlimit="10"></path>
    <path d="M198.47,348.2s23.48,2.94,34.42-.53l13.87-.8s2.67-6.67,8-3.47c0,0,12.54,6.94,21.88,17.34l-27.48,15.21s-15.74,7.47-26.68,7.2c0,0-54.7,10.14-62.44-5.6,0,0-4.83-8.38-8.69-20.6-10.18-37.57-8.39-67.98-8.39-67.98,1.81-19.83,7.03-32.16,12.18-39.7,4.19-6.13,12.3-8.27,18.9-4.87,6.03,3.1,12.5,10.26,15.61,26.16,0,0,4.54,32.29,0,64.84,0,0,5.6,4.54,1.07,9.61,0,0,2.4,.53,2.94,2.4,0,0,2.67-3.47,4.8,.8Z" fill="#000000" stroke="#231f20" stroke-miterlimit="10"></path>
    <path d="M190.74,345s-4-5.6-14.41,2.4" fill="none" stroke="#231f20" stroke-linecap="round" stroke-linejoin="round"></path>
    <path d="M310.81,318.85s.13,2.06-2.07,5.43" fill="none" stroke="#231f20" stroke-linecap="round" stroke-linejoin="round"></path>
    <path d="M371.38,600.62l-38.69,12.01-10.45-25.78c-3.36-8.29-7.41-16.29-12.03-23.95-21.09-34.93-27.65-62.58-29.58-73.88-.61-3.59-.76-5.53-.76-5.53-.53-4.8-4.54-3.2-4.54-3.2l-18.14,1.33c-13.61,1.6-33.89-6.14-33.89-6.14-20.01-7.47-55.23-1.6-55.23-1.6-19.21,3.47-25.62-1.6-25.62-1.6-1.04-.88-2-1.81-2.89-2.79-13.08-14.43-10.22-38.98-10.05-40.34l8.14,1.77s0-18.41,30.68-32.82l1.07,2.13s-1.33,15.74,9.87,15.74l3.2,3.47,25.08-5.34s9.3-.62,16.98,1.41c2.66,.7,5.36,1.22,8.1,1.49l30.16,2.97,21.35,2.4c33.09,2.4,35.22,22.41,35.22,22.41l41.09,128.08,10.94,27.75Z" fill="#40008f" stroke="#231f20" stroke-miterlimit="10"></path>
  </g>
</svg>
